<svg width="24" height="22" viewBox="0 0 24 22" fill="none" xmlns="http://www.w3.org/2000/svg">
<path d="M23.3032 5.54076L12.8752 0.78719C12.318 0.533176 11.6781 0.533176 11.1209 0.78719L0.693293 5.54076C0.271373 5.72263 -0.00195312 6.13808 -0.00195312 6.59755C-0.00195312 7.05701 0.271373 7.47246 0.693293 7.65434L3.99805 9.16075V14.5975C3.99805 15.5175 4.59444 16.3499 5.59803 17.0179V18.2543C4.81789 18.4557 4.30926 19.2058 4.41079 20.0051C4.51232 20.8043 5.19233 21.4034 5.99801 21.4034C6.80369 21.4034 7.48371 20.8043 7.58524 20.0051C7.68677 19.2058 7.17813 18.4557 6.39799 18.2543V17.4775C8.15969 18.2577 10.0717 18.6401 11.998 18.5975C16.4839 18.5975 19.9979 16.8403 19.9979 14.5975V9.16075L23.3027 7.65434C23.7246 7.47246 23.998 7.05701 23.998 6.59755C23.998 6.13808 23.7246 5.72263 23.3027 5.54076H23.3032ZM6.79807 19.7975C6.79807 20.2393 6.4399 20.5975 5.99806 20.5975C5.55622 20.5975 5.19805 20.2393 5.19805 19.7975C5.19805 19.3556 5.55622 18.9975 5.99806 18.9975C6.4399 18.9975 6.79807 19.3557 6.79807 19.7975ZM4.79807 14.5975V9.52553L5.59808 9.89031V16.0323C5.13341 15.6949 4.84077 15.1701 4.79807 14.5975ZM19.198 14.5975C19.198 16.3323 15.9008 17.7975 11.998 17.7975C9.76322 17.7975 7.73045 17.3175 6.39804 16.5795V10.2551L11.1208 12.4079C11.678 12.6623 12.3181 12.6623 12.8752 12.4079L19.1979 9.52553V14.5975H19.198ZM22.9712 6.92595L12.5436 11.6799C12.1967 11.8356 11.7998 11.8356 11.4529 11.6799L6.92168 9.61436L10.4492 7.82838C10.9263 8.07959 11.459 8.20657 11.998 8.19757C13.3436 8.19757 14.398 7.49478 14.398 6.59759C14.398 5.70041 13.3436 4.99762 11.998 4.99762C10.6524 4.99762 9.59804 5.70041 9.59804 6.59759C9.60019 6.83328 9.67262 7.06292 9.80602 7.25717L5.98962 9.18916L1.02488 6.92595C0.888432 6.8742 0.798152 6.74352 0.798152 6.59755C0.798152 6.45163 0.888385 6.32089 1.02488 6.26914L11.4524 1.5152C11.7994 1.35944 12.1963 1.35944 12.5432 1.5152L22.9712 6.26919C23.1076 6.32094 23.1979 6.45163 23.1979 6.59759C23.1979 6.74352 23.1077 6.87425 22.9712 6.92595ZM10.398 6.59755C10.398 6.21997 11.082 5.79754 11.998 5.79754C12.914 5.79754 13.598 6.21992 13.598 6.59755C13.598 6.97517 12.914 7.39756 11.998 7.39756C11.082 7.39756 10.398 6.97517 10.398 6.59755Z" fill="#681C3A"/>
</svg>
