<svg width="16" height="16" viewBox="0 0 16 16" fill="none" xmlns="http://www.w3.org/2000/svg">
<path d="M6.50793 15.0522C6.44993 15.0522 6.39068 15.0394 6.33468 15.0134C6.15718 14.9309 6.06543 14.7402 6.11143 14.5499L7.46343 8.97216L4.20093 8.95616C4.04743 8.95541 3.90918 8.86966 3.84043 8.73241C3.77143 8.59516 3.78518 8.43341 3.87618 8.30991L9.16443 1.11391C9.28043 0.95616 9.48593 0.90416 9.66268 0.98641C9.84018 1.06891 9.93193 1.25966 9.88593 1.44991L8.53393 7.02741L11.7964 7.04341C11.9499 7.04416 12.0882 7.12991 12.1569 7.26716C12.2259 7.40416 12.2122 7.56616 12.1214 7.68966L6.83293 14.8859C6.75368 14.9937 6.63293 15.0522 6.50793 15.0522ZM4.51218 8.39466L7.66493 8.41041C7.78918 8.41091 7.90493 8.46741 7.98218 8.56541C8.05943 8.66391 8.08668 8.78966 8.05768 8.91141L6.84318 13.9217L11.4852 7.60516L8.33243 7.58941C8.20818 7.58891 8.09243 7.53241 8.01518 7.43441C7.93793 7.33591 7.91068 7.21016 7.93968 7.08841L9.15418 2.07816L4.51218 8.39466ZM8.33468 7.02641H8.33518C8.33493 7.02641 8.33493 7.02641 8.33468 7.02641Z" fill="#411023"/>
</svg>
