<svg width="16" height="17" viewBox="0 0 16 17" fill="none" xmlns="http://www.w3.org/2000/svg">
<g clip-path="url(#clip0_625_1379)">
<path d="M14.2939 7.86665L8.16719 13.9933C7.41662 14.7439 6.39864 15.1655 5.33719 15.1655C4.27573 15.1655 3.25775 14.7439 2.50719 13.9933C1.75662 13.2428 1.33496 12.2248 1.33496 11.1633C1.33496 10.1019 1.75662 9.08388 2.50719 8.33332L8.63385 2.20665C9.13423 1.70628 9.81288 1.42517 10.5205 1.42517C11.2282 1.42517 11.9068 1.70628 12.4072 2.20665C12.9076 2.70703 13.1887 3.38568 13.1887 4.09332C13.1887 4.80096 12.9076 5.47961 12.4072 5.97999L6.27385 12.1067C6.02366 12.3568 5.68434 12.4974 5.33052 12.4974C4.9767 12.4974 4.63737 12.3568 4.38719 12.1067C4.137 11.8565 3.99644 11.5171 3.99644 11.1633C3.99644 10.8095 4.137 10.4702 4.38719 10.22L10.0472 4.56665" stroke="#411023" stroke-linecap="round" stroke-linejoin="round"/>
</g>
<defs>
<clipPath id="clip0_625_1379">
<rect width="16" height="16" fill="white" transform="translate(0 0.5)"/>
</clipPath>
</defs>
</svg>
