<svg width="16" height="16" viewBox="0 0 16 16" fill="none" xmlns="http://www.w3.org/2000/svg">
<g clip-path="url(#clip0_670_573)">
<path d="M15.2123 14.6145H13.2268V12.0866H15.2123C15.2703 12.0866 15.326 12.0635 15.367 12.0225C15.408 11.9815 15.4311 11.9258 15.4311 11.8678C15.4311 11.8098 15.408 11.7542 15.367 11.7132C15.326 11.6721 15.2703 11.6491 15.2123 11.6491H13.2268V11.4895C13.2268 11.4314 13.2038 11.3758 13.1627 11.3348C13.1217 11.2938 13.0661 11.2707 13.0081 11.2707H11.9859C11.8666 11.271 11.7501 11.3072 11.6516 11.3747C11.5532 11.4422 11.4773 11.5378 11.4341 11.6491H9.70206V8.87496C9.81333 8.83169 9.90897 8.75589 9.97649 8.65744C10.044 8.55898 10.0803 8.44246 10.0806 8.32308V7.30133C10.0806 7.24331 10.0575 7.18767 10.0165 7.14665C9.97547 7.10563 9.91983 7.08258 9.86181 7.08258H9.70206V4.50758C9.7021 4.46615 9.71857 4.42643 9.74786 4.39713C9.77716 4.36784 9.81688 4.35136 9.85831 4.35133H11.4341C11.4773 4.46257 11.5532 4.55818 11.6516 4.62568C11.7501 4.69318 11.8666 4.72943 11.9859 4.72971H13.0081C13.0661 4.72971 13.1217 4.70666 13.1627 4.66563C13.2038 4.62461 13.2268 4.56897 13.2268 4.51096V0.78833C13.2268 0.730314 13.2038 0.674674 13.1627 0.63365C13.1217 0.592627 13.0661 0.56958 13.0081 0.56958H11.9859C11.8666 0.569817 11.75 0.606055 11.6516 0.673558C11.5531 0.741062 11.4773 0.836692 11.4341 0.947955H9.01806C8.29726 0.948782 7.60622 1.23549 7.09653 1.74517C6.58684 2.25486 6.30014 2.9459 6.29931 3.66671V7.08258H6.13956C6.08155 7.08258 6.02591 7.10563 5.98488 7.14665C5.94386 7.18767 5.92081 7.24331 5.92081 7.30133V8.32358C5.92119 8.44288 5.95751 8.55929 6.02503 8.65764C6.09254 8.75599 6.18813 8.83172 6.29931 8.87496V11.6491H4.56731C4.52403 11.5378 4.44822 11.4422 4.34977 11.3747C4.25132 11.3072 4.1348 11.271 4.01544 11.2707H2.99331C2.9353 11.2707 2.87966 11.2938 2.83863 11.3348C2.79761 11.3758 2.77456 11.4314 2.77456 11.4895V11.6491H0.789062C0.731046 11.6491 0.675406 11.6721 0.634383 11.7132C0.593359 11.7542 0.570313 11.8098 0.570312 11.8678C0.570313 11.9258 0.593359 11.9815 0.634383 12.0225C0.675406 12.0635 0.731046 12.0866 0.789062 12.0866H2.77456V14.6145H0.789062C0.731046 14.6145 0.675406 14.6375 0.634383 14.6785C0.593359 14.7195 0.570313 14.7752 0.570312 14.8332C0.570313 14.8912 0.593359 14.9469 0.634383 14.9879C0.675406 15.0289 0.731046 15.052 0.789062 15.052H2.77456V15.2116C2.77456 15.2696 2.79761 15.3252 2.83863 15.3663C2.87966 15.4073 2.9353 15.4303 2.99331 15.4303H4.01544C4.13481 15.4301 4.25134 15.3939 4.3498 15.3264C4.44825 15.2588 4.52406 15.1632 4.56731 15.052H11.4341C11.4773 15.1632 11.5531 15.2588 11.6516 15.3264C11.75 15.3939 11.8666 15.4301 11.9859 15.4303H13.0081C13.0661 15.4303 13.1217 15.4073 13.1627 15.3663C13.2038 15.3252 13.2268 15.2696 13.2268 15.2116V15.052H15.2123C15.2703 15.052 15.326 15.0289 15.367 14.9879C15.408 14.9469 15.4311 14.8912 15.4311 14.8332C15.4311 14.7752 15.408 14.7195 15.367 14.6785C15.326 14.6375 15.2703 14.6145 15.2123 14.6145ZM6.51456 8.47983C6.47314 8.47976 6.43344 8.46328 6.40415 8.43399C6.37486 8.4047 6.35838 8.365 6.35831 8.32358V7.52008H9.64306V8.32358C9.643 8.365 9.62651 8.4047 9.59723 8.43399C9.56794 8.46328 9.52823 8.47976 9.48681 8.47983H6.51456ZM11.8297 1.16333C11.8297 1.12189 11.8461 1.08215 11.8755 1.05284C11.9048 1.02354 11.9445 1.00708 11.9859 1.00708H12.7893V4.29171H11.9859C11.9445 4.29167 11.9048 4.2752 11.8755 4.2459C11.8462 4.21661 11.8297 4.17689 11.8297 4.13546V1.16333ZM6.73681 3.66671C6.73751 3.06189 6.97808 2.48205 7.40574 2.05439C7.83341 1.62672 8.41325 1.38615 9.01806 1.38546H11.3922V3.91333H9.85831C9.7009 3.91353 9.54999 3.97615 9.43869 4.08745C9.32738 4.19876 9.26476 4.34967 9.26456 4.50708V7.08208H6.73681V3.66671ZM6.51806 12.0866C6.57608 12.0866 6.63172 12.0635 6.67274 12.0225C6.71377 11.9815 6.73681 11.9258 6.73681 11.8678V8.91783H9.26456V11.8678C9.26456 11.9258 9.28761 11.9815 9.32863 12.0225C9.36966 12.0635 9.4253 12.0866 9.48331 12.0866H11.3922V14.6145H4.60919V12.0866H6.51806ZM4.17169 14.8366C4.17169 14.878 4.15523 14.9178 4.12592 14.9471C4.09662 14.9764 4.05688 14.9928 4.01544 14.9928H3.21206V11.7082H4.01544C4.05687 11.7082 4.09659 11.7247 4.12589 11.754C4.15518 11.7833 4.17165 11.823 4.17169 11.8645V14.8366ZM12.7893 14.9928H11.9859C11.9445 14.9928 11.9048 14.9764 11.8755 14.9471C11.8461 14.9178 11.8297 14.878 11.8297 14.8366V11.8645C11.8297 11.823 11.8462 11.7833 11.8755 11.754C11.9048 11.7247 11.9445 11.7082 11.9859 11.7082H12.7893V14.9928Z" fill="#411023"/>
</g>
<defs>
<clipPath id="clip0_670_573">
<rect width="16" height="16" fill="white"/>
</clipPath>
</defs>
</svg>
