<svg width="24" height="24" viewBox="0 0 24 24" fill="none" xmlns="http://www.w3.org/2000/svg">
<g clip-path="url(#clip0_664_2673)">
<path d="M21.3906 15.6745C21.3674 15.6357 21.343 15.5985 21.3186 15.5657C21.0762 15.2269 20.7158 15.0029 20.3046 14.9352C19.8954 14.8677 19.4806 14.964 19.143 15.2065L14.671 18.3997H9.99898C9.77857 18.3997 9.59899 18.2205 9.59899 17.9997C9.59899 17.7789 9.77857 17.5997 9.99898 17.5997H12.599C13.371 17.5997 13.999 16.9717 13.999 16.1997C13.999 16.1953 13.9986 16.1585 13.9982 16.1545C13.9734 15.3829 13.3226 14.7813 12.567 14.7997H7.36343C6.90223 14.8037 6.45302 14.9689 6.09902 15.2641L4.14302 16.8921C4.0518 16.9685 3.99902 17.0809 3.99902 17.1997V21.9997C3.99902 22.2209 4.17823 22.3997 4.39901 22.3997H14.3234C14.973 22.3989 15.6058 22.1701 16.1059 21.7561L20.9551 17.7493C21.6138 17.28 21.805 16.3689 21.3906 15.6745ZM20.4686 17.1153L15.5962 21.1397C15.2386 21.4357 14.7862 21.5989 14.323 21.5997H4.79899V17.3872L6.61137 15.8784C6.82418 15.7012 7.09338 15.602 7.36699 15.5996L12.5798 15.5992C12.9114 15.5988 13.1882 15.8496 13.199 16.1997C13.199 16.5304 12.9298 16.7997 12.599 16.7997H9.99898C9.33738 16.7997 8.79898 17.3381 8.79898 17.9997C8.79898 18.6612 9.33738 19.1997 9.99898 19.1997H14.799C14.8822 19.1997 14.9634 19.1736 15.0322 19.1253L19.609 15.8569C19.7738 15.7384 19.9742 15.6925 20.175 15.7244C20.3754 15.7576 20.5506 15.8664 20.671 16.0344C20.683 16.0508 20.6937 16.0676 20.7041 16.0848C20.9066 16.4237 20.8126 16.8688 20.4686 17.1153Z" fill="#681C3A"/>
<path d="M4.38704 16.4001H-0.000976562V17.2002H3.98701V23.2002H-0.000976562V24.0001H4.38704C4.60782 24.0001 4.78702 23.8214 4.78702 23.6001V16.8001C4.78702 16.5789 4.60782 16.4001 4.38704 16.4001Z" fill="#681C3A"/>
<path d="M1.9998 20C1.33821 20 0.799805 20.5384 0.799805 21.2C0.799805 21.8616 1.33821 22.4 1.9998 22.4C2.6614 22.4 3.1998 21.8616 3.1998 21.2C3.1998 20.5384 2.6614 20 1.9998 20ZM1.9998 21.6C1.7794 21.6 1.59982 21.4208 1.59982 21.2C1.59982 20.9792 1.7794 20.8 1.9998 20.8C2.22021 20.8 2.39979 20.9792 2.39979 21.2C2.39979 21.4208 2.22021 21.6 1.9998 21.6Z" fill="#681C3A"/>
<path d="M23.599 12.4001H0.399008C0.178227 12.4001 -0.000976562 12.5789 -0.000976562 12.8001C-0.000976562 14.3437 1.25504 15.6001 2.79901 15.6001H21.199C22.7426 15.6001 23.999 14.3437 23.999 12.8001C23.999 12.579 23.8202 12.4001 23.599 12.4001ZM21.199 14.8001H2.79901C1.83301 14.8001 1.02502 14.1117 0.839398 13.2002H23.1586C22.973 14.1117 22.165 14.8001 21.199 14.8001Z" fill="#681C3A"/>
<path d="M11.9996 2C6.26522 2 1.59961 6.66561 1.59961 12.4V12.8C1.59961 13.0212 1.77881 13.2 1.99959 13.2H21.9996C22.2208 13.2 22.3996 13.0212 22.3996 12.8V12.4C22.3996 6.66556 17.7344 2 11.9996 2ZM2.39963 12.4C2.39963 7.10675 6.70641 2.79997 11.9996 2.79997C17.2928 2.79997 21.5996 7.10675 21.5996 12.4H2.39963Z" fill="#681C3A"/>
<path d="M5.42078 6.56299C5.14117 6.87738 4.882 7.2138 4.65039 7.5634L5.31719 8.00538C5.52841 7.68696 5.76438 7.38016 6.01877 7.09418L5.42078 6.56299Z" fill="#681C3A"/>
<path d="M11.9995 3.6001C9.75313 3.60132 7.61432 4.45008 5.97754 5.98889L6.52555 6.57169C8.01355 5.17247 9.95793 4.40128 11.9999 4.40011L11.9995 3.6001Z" fill="#681C3A"/>
<path d="M13.1998 0H10.7998V0.800016H13.1998V0Z" fill="#681C3A"/>
<path d="M12.3996 0.399902H11.5996V2.39992H12.3996V0.399902Z" fill="#681C3A"/>
</g>
<defs>
<clipPath id="clip0_664_2673">
<rect width="24" height="24" fill="white"/>
</clipPath>
</defs>
</svg>
