<svg width="22" height="24" viewBox="0 0 22 24" fill="none" xmlns="http://www.w3.org/2000/svg">
<path d="M19.4883 7.50486C19.6751 7.04652 19.7695 6.56183 19.7695 6.05947C19.7695 5.95762 19.7655 5.85468 19.7575 5.75366C19.7427 5.5656 19.5781 5.4253 19.3902 5.43997C19.2022 5.45479 19.0617 5.61922 19.0765 5.80729C19.083 5.89058 19.0864 5.97543 19.0864 6.05947C19.0864 6.5706 18.9676 7.05941 18.7333 7.51232C18.6895 7.59683 18.6831 7.69579 18.7155 7.78532C18.7478 7.87485 18.816 7.9468 18.9037 7.98383C20.2375 8.5476 21.0993 9.84744 21.0993 11.2953C21.0993 13.2202 19.5931 14.7959 17.6702 14.8827C17.5224 14.8893 17.3957 14.9904 17.3564 15.133C17.1019 16.055 16.0793 16.7241 14.9249 16.7241C14.3749 16.7241 13.8503 16.5778 13.4181 16.3075L14.5466 14.5267C14.6257 14.4019 14.6663 14.2636 14.6705 14.1258C14.6775 13.8961 14.5833 13.6679 14.3976 13.5063C14.0834 13.2329 13.6081 13.251 13.3155 13.5472L12.4687 14.4045L12.7448 12.3594C12.7739 12.1431 12.7115 11.9222 12.5736 11.7532C12.4529 11.6053 12.2816 11.5063 12.0949 11.4739C12.0682 11.4693 12.0412 11.466 12.014 11.4642L11.709 11.4436C11.5572 11.4333 11.412 11.4663 11.2862 11.5326C11.0765 11.6432 10.9203 11.8463 10.8764 12.0958L10.6093 13.6134L10.3422 15.1309L8.69306 13.1028C8.63836 13.0355 8.57386 12.9791 8.50294 12.9344C8.50252 12.9342 8.50209 12.9338 8.50167 12.9336C8.49403 12.9288 8.48602 12.9246 8.47824 12.9201C8.37675 12.8612 8.26359 12.8248 8.1472 12.8145C8.1435 12.8142 8.1397 12.8143 8.136 12.814C8.11884 12.8127 8.10169 12.8116 8.08444 12.8114C7.97934 12.8104 7.87322 12.8302 7.77272 12.8725L7.45402 13.0065C7.24238 13.0954 7.08005 13.2716 7.00861 13.4897C6.93717 13.7079 6.96394 13.946 7.08206 14.1429L8.43197 16.3929C8.02931 16.6079 7.55789 16.7242 7.07456 16.7242C5.92017 16.7242 4.89759 16.055 4.64306 15.1331C4.60369 14.9904 4.47698 14.8894 4.32923 14.8828C2.40637 14.796 0.900141 13.2203 0.900141 11.2954C0.900141 9.84744 1.76198 8.5476 3.09577 7.98388C3.18342 7.94685 3.25167 7.8749 3.28402 7.78537C3.31636 7.69583 3.30989 7.59688 3.26616 7.51237C3.03188 7.05946 2.91309 6.57065 2.91309 6.05952C2.91309 4.31272 4.33425 2.89157 6.08105 2.89157C6.56794 2.89157 7.03538 2.99938 7.47028 3.21201C7.56136 3.25658 7.66758 3.25832 7.76016 3.21679C7.85264 3.17526 7.92197 3.09477 7.94925 2.99708C8.32978 1.63457 9.58425 0.682959 10.9998 0.682959C12.4154 0.682959 13.6699 1.63457 14.0504 2.99708C14.0777 3.09477 14.147 3.1753 14.2395 3.21679C14.332 3.25837 14.4383 3.25663 14.5294 3.21201C14.9643 2.99938 15.4317 2.89157 15.9186 2.89157C17.0863 2.89157 18.156 3.5309 18.7101 4.56013C18.7995 4.72621 19.0066 4.78837 19.1727 4.69893C19.3388 4.60954 19.401 4.40235 19.3115 4.23627C18.6381 2.98546 17.338 2.20846 15.9186 2.20846C15.4574 2.20846 15.0105 2.2881 14.5853 2.44569C14.0133 0.988021 12.5902 -0.000244141 10.9996 -0.000244141C9.40908 -0.000244141 7.98591 0.988021 7.41413 2.44565C6.98892 2.28805 6.54202 2.20841 6.08081 2.20841C3.95728 2.20841 2.2297 3.93599 2.2297 6.05947C2.2297 6.56183 2.32411 7.04657 2.51086 7.50486C1.10639 8.2386 0.216797 9.69051 0.216797 11.2953C0.216797 13.5068 1.887 15.3311 4.06144 15.548C4.48894 16.654 5.69034 17.4073 7.07433 17.4073C7.68108 17.4073 8.27527 17.2566 8.78325 16.9787L8.95252 17.2608C9.18342 17.6458 9.279 18.1017 9.22158 18.5447C9.17189 18.9277 9.11072 19.3787 9.03314 19.8202C9.00052 20.006 9.12469 20.1831 9.31045 20.2157C9.4965 20.2484 9.67331 20.1241 9.70594 19.9384C9.78586 19.4835 9.84839 19.023 9.89902 18.6324C9.97613 18.0375 9.84806 17.4256 9.53831 16.9093L7.66767 13.7914C7.64555 13.7545 7.65188 13.7196 7.65764 13.7021C7.66336 13.6846 7.67892 13.6528 7.71848 13.6361L8.03723 13.5021C8.08111 13.4837 8.13286 13.4966 8.16291 13.5336L9.9833 15.7723C9.98813 15.7783 9.99324 15.7838 9.99825 15.7895C10.0659 15.8663 10.15 15.9216 10.2425 15.9519C10.3408 15.9842 10.4481 15.9884 10.5543 15.9615C10.5555 15.9613 10.5566 15.9611 10.5578 15.9607C10.5578 15.9607 10.5578 15.9607 10.5579 15.9607C10.6611 15.9339 10.7508 15.8804 10.8206 15.808C10.8233 15.8051 10.8263 15.8024 10.829 15.7996C10.8314 15.7969 10.8337 15.7941 10.836 15.7913C10.903 15.7158 10.9494 15.6219 10.9679 15.5166L11.5491 12.2143C11.5587 12.1597 11.6088 12.1216 11.6628 12.1251L11.9679 12.1458C12.0086 12.1485 12.0333 12.1717 12.0443 12.1853C12.0554 12.1988 12.0732 12.2276 12.0677 12.2681L11.742 14.6807C11.738 14.7105 11.7364 14.7403 11.7372 14.7696C11.7422 14.9754 11.8605 15.1644 12.0497 15.2573C12.0632 15.264 12.0769 15.27 12.0907 15.2755C12.1598 15.3028 12.2322 15.3157 12.304 15.3147C12.4475 15.3127 12.5884 15.2555 12.6941 15.1484L13.8014 14.0273C13.8205 14.008 13.8454 13.9975 13.8708 13.9958C13.872 13.9957 13.873 13.9954 13.8742 13.9954C13.8747 13.9954 13.8753 13.9955 13.8758 13.9955C13.8953 13.995 13.9148 13.9996 13.9321 14.0096C13.9381 14.013 13.9438 14.0171 13.9492 14.0218C13.9898 14.0571 13.9983 14.1157 13.9695 14.1611L12.4659 16.5337C12.1501 17.0321 12.0043 17.6314 12.0554 18.2212C12.1985 19.8735 12.4464 21.7365 13.5237 23.3166H8.47322C8.85872 22.745 9.15825 22.0946 9.38222 21.3459C9.43627 21.1652 9.33361 20.9748 9.15286 20.9208C8.97206 20.8667 8.78175 20.9694 8.72775 21.1501C8.45456 22.0634 8.06119 22.8111 7.52508 23.4358C7.43822 23.5371 7.41825 23.6796 7.47398 23.8009C7.52972 23.9221 7.65089 23.9998 7.7843 23.9998H14.2148C14.3483 23.9998 14.4695 23.9221 14.5252 23.8009C14.5809 23.6796 14.5609 23.5371 14.4741 23.4359C13.1588 21.9028 12.8872 19.9099 12.7358 18.1623C12.6976 17.7207 12.8066 17.2721 13.0428 16.8994L13.0524 16.8843C13.5935 17.2234 14.2452 17.4073 14.9248 17.4073C16.3088 17.4073 17.5102 16.654 17.9377 15.548C20.1121 15.3311 21.7823 13.5068 21.7823 11.2954C21.7824 9.69051 20.8928 8.2386 19.4883 7.50486Z" fill="#681C3A"/>
</svg>
