<svg width="16" height="16" viewBox="0 0 16 16" fill="none" xmlns="http://www.w3.org/2000/svg">
<path d="M8.0013 15.3333C6.58731 15.3317 5.23169 14.7692 4.23185 13.7694C3.232 12.7695 2.66958 11.4139 2.66797 9.99993C2.66797 5.36467 7.57064 0.937431 7.77947 0.751231C7.84048 0.696668 7.91945 0.666504 8.0013 0.666504C8.08315 0.666504 8.16213 0.696668 8.22314 0.751231C8.43197 0.937431 13.3346 5.36467 13.3346 9.99993C13.333 11.4139 12.7706 12.7695 11.7708 13.7694C10.7709 14.7692 9.41529 15.3317 8.0013 15.3333ZM8.0013 1.4573C7.04574 2.379 3.33464 6.20387 3.33464 9.99993C3.33464 11.2376 3.8263 12.4246 4.70147 13.2998C5.57664 14.1749 6.76363 14.6666 8.0013 14.6666C9.23898 14.6666 10.426 14.1749 11.3011 13.2998C12.1763 12.4246 12.668 11.2376 12.668 9.99993C12.668 6.20387 8.95687 2.379 8.0013 1.4573Z" fill="#411023"/>
<path d="M6.16587 13.5089C6.10734 13.509 6.04983 13.4936 5.9992 13.4642C5.39225 13.1119 4.88826 12.6066 4.53748 11.9987C4.1867 11.3908 4.00138 10.7016 4 9.99984C4 9.91143 4.03512 9.82665 4.09763 9.76413C4.16014 9.70162 4.24493 9.6665 4.33333 9.6665C4.42174 9.6665 4.50652 9.70162 4.56904 9.76413C4.63155 9.82665 4.66667 9.91143 4.66667 9.99984C4.66784 10.5848 4.82236 11.1592 5.1148 11.6658C5.40724 12.1724 5.82738 12.5935 6.33333 12.887C6.39687 12.9238 6.44651 12.9805 6.47454 13.0483C6.50258 13.1161 6.50744 13.1913 6.48837 13.2622C6.4693 13.3331 6.42737 13.3957 6.36909 13.4403C6.31081 13.4849 6.23926 13.509 6.16587 13.5089Z" fill="#411023"/>
</svg>
