<svg width="22" height="23" viewBox="0 0 22 23" fill="none" xmlns="http://www.w3.org/2000/svg">
<path d="M0.485513 12.4953C1.33681 12.3622 2.08953 12.4578 2.72773 12.778C2.61036 13.3238 2.70079 13.8937 2.98133 14.3764C2.39738 14.3949 1.84354 14.6398 1.43701 15.0594C1.03048 15.479 0.80316 16.0403 0.80316 16.6246C0.80316 17.2088 1.03048 17.7701 1.43701 18.1897C1.84354 18.6093 2.39738 18.8543 2.98133 18.8727C2.68814 19.3788 2.60363 19.9792 2.74571 20.5465C2.8878 21.1138 3.2453 21.6035 3.74239 21.9116C4.23948 22.2197 4.83706 22.3221 5.40836 22.197C5.97967 22.0719 6.47977 21.7291 6.80258 21.2414C7.00745 21.5513 7.28595 21.8056 7.61316 21.9816C7.94036 22.1575 8.30607 22.2496 8.67758 22.2496C9.04908 22.2496 9.41479 22.1575 9.74199 21.9816C10.0692 21.8056 10.3477 21.5513 10.5526 21.2414C10.8134 21.6364 11.1924 21.9388 11.6354 22.1057C12.0783 22.2725 12.5626 22.2951 13.0192 22.1703C13.085 22.2219 13.166 22.2499 13.2496 22.25H20.7496C20.8374 22.25 20.9224 22.2191 20.9899 22.1629C21.0573 22.1066 21.1028 22.0284 21.1185 21.942C21.1342 21.8556 21.119 21.7664 21.0757 21.69C21.0324 21.6136 20.9636 21.5548 20.8814 21.524C20.1662 21.2549 18.1246 20.2598 18.1246 19.25V13.25C18.1246 13.1398 18.177 12.824 18.6439 12.2143C19.589 11.8745 20.4063 11.2514 20.9844 10.4302C21.5625 9.60889 21.8734 8.62934 21.8746 7.625C21.8746 4.94952 20.0439 0.891266 19.966 0.719797C19.9362 0.654253 19.8881 0.598673 19.8276 0.559697C19.7671 0.520721 19.6966 0.499997 19.6246 0.5H14.3746C14.3026 0.499997 14.2321 0.520721 14.1716 0.559697C14.111 0.598673 14.063 0.654253 14.0332 0.719797C13.9553 0.891266 12.1246 4.94952 12.1246 7.625C12.1258 8.62934 12.4366 9.60889 13.0147 10.4302C13.5929 11.2514 14.4102 11.8745 15.3552 12.2143C15.8221 12.8241 15.8746 13.1399 15.8746 13.25V19.25C15.8746 19.8222 15.2192 20.3895 14.5211 20.8228C14.6533 20.4873 14.7028 20.125 14.6655 19.7664C14.6283 19.4079 14.5053 19.0635 14.307 18.7624C14.1088 18.4613 13.841 18.2123 13.5263 18.0364C13.2116 17.8605 12.8592 17.7629 12.4988 17.7518C12.6942 17.4153 12.7988 17.0338 12.8025 16.6446C12.8061 16.2555 12.7087 15.8721 12.5197 15.5319C12.3307 15.1917 12.0567 14.9064 11.7243 14.704C11.392 14.5015 11.0128 14.3888 10.6238 14.3768C10.917 13.8708 11.0015 13.2704 10.8594 12.7031C10.7174 12.1358 10.3599 11.6461 9.86276 11.338C9.36567 11.0298 8.7681 10.9275 8.19679 11.0526C7.62548 11.1777 7.12539 11.5205 6.80258 12.0081C6.63248 11.7516 6.41163 11.5326 6.15365 11.3647C5.89566 11.1968 5.60602 11.0835 5.30258 11.0318V10.5202C5.9277 10.8168 6.52878 10.9025 7.09625 10.775C8.1004 10.5492 8.60323 9.72777 8.62437 9.69294C8.65095 9.64863 8.66809 9.59931 8.67471 9.54807C8.68134 9.49683 8.6773 9.44478 8.66285 9.39517C8.64841 9.34556 8.62387 9.29948 8.59077 9.2598C8.55768 9.22013 8.51674 9.18772 8.47053 9.16461L7.47443 8.66656C8.35404 7.73516 8.65625 6.26998 8.67054 6.19855C8.68944 6.10405 8.67123 6.0059 8.61969 5.92447C8.56815 5.84303 8.48724 5.78457 8.39375 5.7612C7.32223 5.49331 6.26408 5.58308 5.67781 5.67214V4.625C5.67781 4.56558 5.66368 4.50701 5.63661 4.45412C5.60953 4.40123 5.57027 4.35554 5.52206 4.3208C5.47386 4.28605 5.41809 4.26327 5.35935 4.25431C5.30061 4.24535 5.24058 4.25047 5.18422 4.26927C3.42575 4.8552 2.90084 6.06659 2.74428 6.75186L2.0464 6.51927C1.99002 6.50043 1.92997 6.49527 1.8712 6.5042C1.81243 6.51314 1.75662 6.53592 1.70839 6.57067C1.66015 6.60541 1.62087 6.65113 1.59378 6.70404C1.56669 6.75696 1.55257 6.81555 1.55258 6.875C1.55258 8.43205 2.04856 9.29089 2.28758 9.61447C2.14416 9.82648 2.0191 10.0503 1.91375 10.2836C1.71019 10.7317 1.58771 11.2123 1.55201 11.7031C1.15722 11.6747 0.760464 11.692 0.369638 11.7547C0.319793 11.7609 0.271704 11.7771 0.228226 11.8022C0.184747 11.8274 0.146765 11.861 0.116534 11.9011C0.0863037 11.9412 0.0644403 11.987 0.0522418 12.0357C0.0400433 12.0845 0.0377583 12.1351 0.0455227 12.1848C0.0532871 12.2344 0.0709426 12.282 0.097441 12.3246C0.123939 12.3673 0.158741 12.4042 0.199779 12.4332C0.240818 12.4621 0.287258 12.4826 0.336341 12.4932C0.385425 12.5039 0.436153 12.5046 0.485513 12.4953ZM6.80258 18.125C6.5059 18.125 6.21589 18.037 5.96922 17.8722C5.72255 17.7074 5.53029 17.4731 5.41676 17.199C5.30322 16.9249 5.27352 16.6233 5.3314 16.3324C5.38928 16.0414 5.53214 15.7741 5.74191 15.5643C5.95169 15.3546 6.21897 15.2117 6.50994 15.1538C6.80091 15.0959 7.10251 15.1256 7.3766 15.2392C7.65069 15.3527 7.88496 15.545 8.04978 15.7916C8.2146 16.0383 8.30258 16.3283 8.30258 16.625C8.30213 17.0227 8.14395 17.404 7.86274 17.6852C7.58153 17.9664 7.20026 18.1246 6.80258 18.125ZM1.55258 16.625C1.55258 16.3283 1.64055 16.0383 1.80537 15.7916C1.97019 15.545 2.20446 15.3527 2.47855 15.2392C2.75264 15.1256 3.05424 15.0959 3.34521 15.1538C3.63618 15.2117 3.90346 15.3546 4.11324 15.5643C4.32301 15.7741 4.46588 16.0414 4.52375 16.3324C4.58163 16.6233 4.55193 16.9249 4.43839 17.199C4.32486 17.4731 4.1326 17.7074 3.88593 17.8722C3.63926 18.037 3.34925 18.125 3.05258 18.125C2.65489 18.1246 2.27362 17.9664 1.99241 17.6852C1.7112 17.404 1.55302 17.0227 1.55258 16.625ZM4.92758 21.5C4.6309 21.5 4.34089 21.412 4.09422 21.2472C3.84755 21.0824 3.65529 20.8481 3.54176 20.574C3.42822 20.2999 3.39852 19.9983 3.4564 19.7074C3.51428 19.4164 3.65714 19.1491 3.86692 18.9393C4.07669 18.7296 4.34397 18.5867 4.63494 18.5288C4.92591 18.4709 5.22751 18.5006 5.5016 18.6142C5.77569 18.7277 6.00996 18.92 6.17478 19.1666C6.3396 19.4133 6.42758 19.7033 6.42758 20C6.42713 20.3977 6.26895 20.779 5.98774 21.0602C5.70653 21.3414 5.32526 21.4996 4.92758 21.5ZM8.67758 21.5C8.3809 21.5 8.09089 21.412 7.84422 21.2472C7.59755 21.0824 7.40529 20.8481 7.29176 20.574C7.17822 20.2999 7.14852 19.9983 7.2064 19.7074C7.26428 19.4164 7.40714 19.1491 7.61691 18.9393C7.82669 18.7296 8.09397 18.5867 8.38494 18.5288C8.67591 18.4709 8.97751 18.5006 9.2516 18.6142C9.52569 18.7277 9.75996 18.92 9.92478 19.1666C10.0896 19.4133 10.1776 19.7033 10.1776 20C10.1771 20.3977 10.0189 20.779 9.73774 21.0602C9.45653 21.3414 9.07526 21.4996 8.67758 21.5ZM14.6195 1.25H19.3796C19.6884 1.96634 20.651 4.3003 20.9981 6.31672C20.5137 6.52545 19.595 6.875 18.8746 6.875C18.4322 6.875 17.8147 6.43391 17.2175 6.00734C16.5242 5.51211 15.8072 5 15.1246 5C14.5946 5 13.9506 5.20466 13.2106 5.6083C13.1848 5.62236 13.1596 5.63642 13.1345 5.65048C13.5496 3.81209 14.3443 1.88848 14.6195 1.25ZM12.8746 7.625C12.8772 7.29579 12.9024 6.96715 12.9502 6.64142C13.4639 6.29773 14.4294 5.75 15.1246 5.75C15.5669 5.75 16.1844 6.19109 16.7816 6.61766C17.475 7.11289 18.1919 7.625 18.8746 7.625C19.6372 7.625 20.5321 7.31914 21.0999 7.08786C21.116 7.27292 21.1246 7.45259 21.1246 7.625C21.1246 8.71902 20.69 9.76823 19.9164 10.5418C19.1428 11.3154 18.0936 11.75 16.9996 11.75C15.9056 11.75 14.8563 11.3154 14.0828 10.5418C13.3092 9.76823 12.8746 8.71902 12.8746 7.625ZM14.9483 21.443C16.0606 20.7478 16.6246 20.01 16.6246 19.25V13.25C16.6246 13.0183 16.5501 12.7552 16.4035 12.4635C16.7994 12.5122 17.1998 12.5122 17.5957 12.4635C17.4491 12.7551 17.3746 13.0183 17.3746 13.25V19.25C17.3746 20.01 17.9385 20.7478 19.0508 21.443C19.0817 21.4623 19.1126 21.4813 19.1434 21.5H14.8557C14.8866 21.4813 14.9174 21.4622 14.9483 21.443ZM13.9276 20C13.9276 20.2967 13.8396 20.5867 13.6748 20.8334C13.51 21.08 13.2757 21.2723 13.0016 21.3858C12.7275 21.4994 12.4259 21.5291 12.1349 21.4712C11.844 21.4133 11.5767 21.2704 11.3669 21.0607C11.1571 20.8509 11.0143 20.5836 10.9564 20.2926C10.8985 20.0017 10.9282 19.7001 11.0418 19.426C11.1553 19.1519 11.3475 18.9176 11.5942 18.7528C11.8409 18.588 12.1309 18.5 12.4276 18.5C12.8253 18.5005 13.2065 18.6586 13.4877 18.9398C13.7689 19.2211 13.9271 19.6023 13.9276 20ZM12.0526 16.625C12.0526 16.9217 11.9646 17.2117 11.7998 17.4584C11.635 17.705 11.4007 17.8973 11.1266 18.0108C10.8525 18.1244 10.5509 18.1541 10.2599 18.0962C9.96897 18.0383 9.70169 17.8954 9.49191 17.6857C9.28214 17.4759 9.13928 17.2086 9.0814 16.9176C9.02352 16.6267 9.05322 16.3251 9.16676 16.051C9.28029 15.7769 9.47255 15.5426 9.71922 15.3778C9.96589 15.213 10.2559 15.125 10.5526 15.125C10.9503 15.1255 11.3315 15.2836 11.6127 15.5648C11.8939 15.8461 12.0521 16.2273 12.0526 16.625ZM8.67758 11.75C8.97425 11.75 9.26426 11.838 9.51093 12.0028C9.7576 12.1676 9.94986 12.4019 10.0634 12.676C10.1769 12.9501 10.2066 13.2517 10.1488 13.5426C10.0909 13.8336 9.94801 14.1009 9.73824 14.3107C9.52846 14.5204 9.26118 14.6633 8.97021 14.7212C8.67924 14.7791 8.37764 14.7494 8.10355 14.6358C7.82946 14.5223 7.59519 14.33 7.43037 14.0834C7.26555 13.8367 7.17758 13.5467 7.17758 13.25C7.17803 12.8523 7.33622 12.4711 7.61742 12.1898C7.89863 11.9086 8.27989 11.7505 8.67758 11.75ZM6.42758 13.25C6.42758 13.5467 6.3396 13.8367 6.17478 14.0834C6.00996 14.33 5.77569 14.5223 5.5016 14.6358C5.22751 14.7494 4.92591 14.7791 4.63494 14.7212C4.34397 14.6633 4.07669 14.5204 3.86692 14.3107C3.65714 14.1009 3.51428 13.8336 3.4564 13.5426C3.39852 13.2517 3.42822 12.9501 3.54176 12.676C3.65529 12.4019 3.84755 12.1676 4.09422 12.0028C4.34089 11.838 4.6309 11.75 4.92758 11.75C5.32526 11.7505 5.70652 11.9086 5.98773 12.1898C6.26893 12.4711 6.42712 12.8523 6.42758 13.25ZM2.62601 8.69413C2.51033 8.42225 2.37715 7.99616 2.32503 7.40277L2.93398 7.60573C2.99017 7.62478 3.05008 7.63017 3.10876 7.62147C3.16744 7.61276 3.22321 7.59021 3.27144 7.55568C3.31968 7.52114 3.359 7.47562 3.38615 7.42287C3.4133 7.37012 3.4275 7.31167 3.42758 7.25234C3.42833 7.19253 3.46325 5.90586 4.92758 5.18244V6.125C4.92762 6.18194 4.94063 6.23812 4.9656 6.28929C4.99058 6.34046 5.02687 6.38527 5.07173 6.42033C5.11659 6.4554 5.16885 6.47979 5.22453 6.49167C5.28022 6.50355 5.33787 6.5026 5.39314 6.48889C5.40603 6.4857 6.58376 6.20084 7.84081 6.41178C7.67937 6.95516 7.29706 7.96962 6.59454 8.438C6.5399 8.47444 6.49579 8.52459 6.46661 8.58343C6.43744 8.64228 6.42423 8.70775 6.42832 8.7733C6.4324 8.83885 6.45363 8.90218 6.48987 8.95695C6.52612 9.01172 6.57612 9.05601 6.63486 9.08539L7.70829 9.62211C7.48877 9.83057 7.21757 9.97663 6.92272 10.0452C6.3912 10.1614 5.78989 9.99917 5.13556 9.563C5.07909 9.52536 5.01346 9.50375 4.94567 9.50047C4.87788 9.4972 4.81047 9.51238 4.75063 9.54441C4.69079 9.57643 4.64077 9.6241 4.60589 9.68232C4.57101 9.74054 4.55258 9.80713 4.55258 9.875V10.7225C4.16272 10.472 3.63715 10.0857 3.23234 9.61095C3.82817 8.93084 4.68912 8.38344 5.80578 7.97745C5.89926 7.94346 5.9754 7.87372 6.01746 7.78359C6.05952 7.69345 6.06405 7.5903 6.03005 7.49682C5.99606 7.40334 5.92632 7.3272 5.83618 7.28514C5.74605 7.24308 5.6429 7.23855 5.54942 7.27255C4.67286 7.5913 3.59975 8.12769 2.77911 9.00036C2.72155 8.90167 2.67042 8.79938 2.62601 8.69413ZM2.61547 10.5525C2.66593 10.4436 2.72158 10.3373 2.78239 10.2334C3.1336 10.6059 3.52534 10.938 3.95033 11.2235C3.56006 11.4129 3.23236 11.7103 3.00617 12.0805C2.77854 11.9722 2.54088 11.8863 2.29658 11.8242C2.31941 11.3836 2.42772 10.9517 2.61547 10.5525Z" fill="#681C3A"/>
</svg>
