<svg width="16" height="16" viewBox="0 0 16 16" fill="none" xmlns="http://www.w3.org/2000/svg">
<path d="M10.9652 15.4219H5.03516C4.973 15.4219 4.91338 15.3973 4.86943 15.3533C4.82547 15.3093 4.80078 15.2497 4.80078 15.1876V9.35632C4.80078 9.29416 4.82547 9.23455 4.86943 9.1906C4.91338 9.14664 4.973 9.12195 5.03516 9.12195H10.9652C11.0273 9.12195 11.0869 9.14664 11.1309 9.1906C11.1748 9.23455 11.1995 9.29416 11.1995 9.35632V15.1876C11.1995 15.2497 11.1748 15.3093 11.1309 15.3533C11.0869 15.3973 11.0273 15.4219 10.9652 15.4219ZM5.26953 14.9532H10.7308V9.5907H5.26953V14.9532Z" fill="#411023"/>
<path d="M6.55317 9.59065H5.44129C5.40787 9.59063 5.37484 9.58347 5.34441 9.56965C5.31398 9.55584 5.28685 9.53568 5.26484 9.51053C5.24282 9.48538 5.22644 9.45582 5.21677 9.42383C5.20711 9.39184 5.20439 9.35815 5.20879 9.32502L5.21879 9.2519C5.32348 8.46283 5.30942 7.47533 5.18254 6.73658C5.07129 6.08752 4.81442 5.27346 4.22473 5.08033L3.70067 4.9094C3.6714 4.89984 3.64431 4.88461 3.62093 4.86458C3.59756 4.84455 3.57836 4.82011 3.56443 4.79266C3.5505 4.7652 3.54211 4.73528 3.53975 4.70458C3.53739 4.67389 3.5411 4.64303 3.55067 4.61377L3.89285 3.56565C3.90238 3.5364 3.91758 3.50931 3.93758 3.48594C3.95758 3.46256 3.98199 3.44336 4.00942 3.42943C4.03684 3.4155 4.06675 3.40711 4.09742 3.40475C4.12809 3.40238 4.15893 3.40608 4.18817 3.41565L4.71223 3.5869C5.00838 3.68343 5.28348 3.8354 5.52285 4.03471C6.13442 4.54221 6.54098 5.3619 6.73129 6.47065C6.88035 7.34033 6.90129 8.45721 6.78567 9.38471C6.77872 9.4415 6.75125 9.49378 6.70843 9.53172C6.6656 9.56965 6.61038 9.59061 6.55317 9.59065ZM5.70629 9.1219H6.34379C6.42754 8.28096 6.40067 7.31471 6.26942 6.55002C6.09879 5.55471 5.74692 4.83127 5.22379 4.39565C5.03003 4.23419 4.80732 4.11106 4.56754 4.03283L4.26629 3.9344L4.06942 4.5369L4.37067 4.63502C5.02254 4.84815 5.4516 5.52846 5.64504 6.65721C5.77067 7.39158 5.79254 8.31783 5.70629 9.1219Z" fill="#411023"/>
<path d="M10.5588 9.59058H9.44691C9.38974 9.59055 9.33456 9.56964 9.29174 9.53177C9.24892 9.4939 9.22142 9.44168 9.21441 9.38495C9.09878 8.45745 9.12066 7.34058 9.26878 6.47089C9.53347 4.92902 10.2316 3.93183 11.2878 3.58714L11.8125 3.41589C11.8418 3.40633 11.8726 3.40262 11.9033 3.40499C11.9339 3.40735 11.9639 3.41574 11.9913 3.42967C12.0187 3.44361 12.0431 3.46281 12.0631 3.48618C12.0831 3.50955 12.0983 3.53664 12.1078 3.56589L12.45 4.61402C12.4596 4.64328 12.4633 4.67413 12.4609 4.70483C12.4586 4.73552 12.4502 4.76545 12.4363 4.7929C12.4223 4.82035 12.4031 4.84479 12.3798 4.86482C12.3564 4.88485 12.3293 4.90008 12.3 4.90964L11.776 5.08058C11.6682 5.11569 11.5681 5.17118 11.4813 5.24402C10.716 5.87933 10.6116 7.97027 10.7822 9.25214L10.7919 9.32495C10.7963 9.35808 10.7936 9.39177 10.7839 9.42376C10.7743 9.45576 10.7579 9.48531 10.7359 9.51046C10.7138 9.53561 10.6867 9.55577 10.6563 9.56958C10.6259 9.5834 10.5928 9.59056 10.5594 9.59058H10.5588ZM9.65628 9.12183H10.2938C10.2232 8.4249 10.2263 7.72249 10.3028 7.0262C10.426 5.98589 10.7213 5.26464 11.1813 4.88308C11.3137 4.77273 11.4659 4.68863 11.6297 4.63527L11.931 4.53683L11.7341 3.93433L11.4328 4.03277C10.54 4.32433 9.96722 5.1712 9.73066 6.54995C9.59972 7.31464 9.57284 8.2812 9.65628 9.12183Z" fill="#411023"/>
<path d="M8.55172 9.59065H7.44922C7.38706 9.59065 7.32744 9.56596 7.28349 9.52201C7.23954 9.47805 7.21484 9.41844 7.21484 9.35628V2.5769C7.21484 2.51474 7.23954 2.45513 7.28349 2.41118C7.32744 2.36722 7.38706 2.34253 7.44922 2.34253H8.55172C8.61388 2.34253 8.67349 2.36722 8.71745 2.41118C8.7614 2.45513 8.78609 2.51474 8.78609 2.5769V9.35628C8.78609 9.41844 8.7614 9.47805 8.71745 9.52201C8.67349 9.56596 8.61388 9.59065 8.55172 9.59065ZM7.68359 9.1219H8.31734V2.81253H7.68359V9.1219Z" fill="#411023"/>
<path d="M8 2.8125C7.93784 2.8125 7.87823 2.78781 7.83427 2.74385C7.79032 2.6999 7.76562 2.64029 7.76562 2.57812V0.8125C7.76562 0.75034 7.79032 0.690726 7.83427 0.646772C7.87823 0.602818 7.93784 0.578125 8 0.578125C8.06216 0.578125 8.12177 0.602818 8.16573 0.646772C8.20968 0.690726 8.23438 0.75034 8.23438 0.8125V2.57687C8.23454 2.60776 8.2286 2.63837 8.21689 2.66695C8.20519 2.69553 8.18795 2.72152 8.16617 2.74341C8.14439 2.76531 8.1185 2.78268 8.08998 2.79454C8.06146 2.8064 8.03088 2.8125 8 2.8125Z" fill="#411023"/>
<path d="M3.94497 4.39724C3.90921 4.3972 3.87393 4.38897 3.84185 4.37318C3.51435 4.21286 2.54872 3.83849 2.01591 4.0263C1.95761 4.04585 1.89395 4.0417 1.83868 4.01475C1.78341 3.98779 1.74094 3.9402 1.72044 3.88222C1.69994 3.82424 1.70304 3.76053 1.72909 3.70482C1.75513 3.64912 1.80203 3.60588 1.85966 3.58443C2.68747 3.29224 3.99279 3.92536 4.04716 3.95255C4.09466 3.97591 4.13284 4.01466 4.15551 4.06249C4.17818 4.11032 4.18399 4.16441 4.172 4.21596C4.16001 4.26752 4.13092 4.31349 4.08947 4.34641C4.04802 4.37932 3.99665 4.39724 3.94372 4.39724H3.94497Z" fill="#411023"/>
<path d="M12.0569 4.39724C12.004 4.39731 11.9526 4.37944 11.9111 4.34655C11.8696 4.31366 11.8404 4.26769 11.8284 4.21612C11.8164 4.16455 11.8222 4.11042 11.8448 4.06256C11.8675 4.0147 11.9057 3.97592 11.9532 3.95255C12.0085 3.92536 13.3138 3.29224 14.1407 3.58443C14.1983 3.60588 14.2452 3.64912 14.2713 3.70482C14.2973 3.76053 14.3004 3.82424 14.2799 3.88222C14.2594 3.9402 14.217 3.98779 14.1617 4.01475C14.1064 4.0417 14.0428 4.04585 13.9844 4.0263C13.4513 3.8388 12.4844 4.2138 12.1585 4.37318C12.1269 4.38875 12.0922 4.39698 12.0569 4.39724Z" fill="#411023"/>
</svg>
